<mxfile host="Electron" agent="Mozilla/5.0 (Windows NT 10.0; Win64; x64) AppleWebKit/537.36 (KHTML, like Gecko) draw.io/27.0.9 Chrome/134.0.6998.205 Electron/35.4.0 Safari/537.36" version="27.0.9">
  <diagram name="Trang-1" id="n4mxmj_Tai5NK8vaCUz4">
    <mxGraphModel dx="1665" dy="1043" grid="1" gridSize="10" guides="1" tooltips="1" connect="1" arrows="1" fold="1" page="1" pageScale="1" pageWidth="850" pageHeight="1100" math="0" shadow="0">
      <root>
        <mxCell id="0" />
        <mxCell id="1" parent="0" />
        <mxCell id="jnAjXJH3F_CCq7e61zvw-17" style="edgeStyle=orthogonalEdgeStyle;rounded=0;orthogonalLoop=1;jettySize=auto;html=1;entryX=0;entryY=0.5;entryDx=0;entryDy=0;" parent="1" source="jnAjXJH3F_CCq7e61zvw-2" target="jnAjXJH3F_CCq7e61zvw-16" edge="1">
          <mxGeometry relative="1" as="geometry">
            <Array as="points">
              <mxPoint x="140" y="450" />
              <mxPoint x="140" y="290" />
            </Array>
          </mxGeometry>
        </mxCell>
        <mxCell id="qpy29FYlr7XTLHQaatxs-31" style="edgeStyle=orthogonalEdgeStyle;rounded=0;orthogonalLoop=1;jettySize=auto;html=1;" parent="1" source="jnAjXJH3F_CCq7e61zvw-2" target="qpy29FYlr7XTLHQaatxs-30" edge="1">
          <mxGeometry relative="1" as="geometry">
            <Array as="points">
              <mxPoint x="140" y="450" />
              <mxPoint x="140" y="410" />
            </Array>
          </mxGeometry>
        </mxCell>
        <mxCell id="qpy29FYlr7XTLHQaatxs-34" style="edgeStyle=orthogonalEdgeStyle;rounded=0;orthogonalLoop=1;jettySize=auto;html=1;entryX=0;entryY=0.5;entryDx=0;entryDy=0;" parent="1" source="jnAjXJH3F_CCq7e61zvw-2" target="qpy29FYlr7XTLHQaatxs-33" edge="1">
          <mxGeometry relative="1" as="geometry">
            <Array as="points">
              <mxPoint x="140" y="450" />
              <mxPoint x="140" y="200" />
            </Array>
          </mxGeometry>
        </mxCell>
        <mxCell id="qpy29FYlr7XTLHQaatxs-39" style="edgeStyle=orthogonalEdgeStyle;rounded=0;orthogonalLoop=1;jettySize=auto;html=1;entryX=0;entryY=0.5;entryDx=0;entryDy=0;" parent="1" source="jnAjXJH3F_CCq7e61zvw-2" target="qpy29FYlr7XTLHQaatxs-37" edge="1">
          <mxGeometry relative="1" as="geometry">
            <Array as="points">
              <mxPoint x="140" y="450" />
              <mxPoint x="140" y="620" />
            </Array>
          </mxGeometry>
        </mxCell>
        <mxCell id="Qdt4qbrYpTiPzd6UM6HN-1" style="edgeStyle=orthogonalEdgeStyle;rounded=0;orthogonalLoop=1;jettySize=auto;html=1;entryX=0;entryY=0.5;entryDx=0;entryDy=0;" edge="1" parent="1" source="jnAjXJH3F_CCq7e61zvw-2" target="jnAjXJH3F_CCq7e61zvw-22">
          <mxGeometry relative="1" as="geometry">
            <Array as="points">
              <mxPoint x="140" y="450" />
              <mxPoint x="140" y="500" />
            </Array>
          </mxGeometry>
        </mxCell>
        <mxCell id="jnAjXJH3F_CCq7e61zvw-2" value="Khách hàng&lt;div&gt;&lt;br&gt;&lt;/div&gt;" style="shape=umlActor;verticalLabelPosition=bottom;verticalAlign=top;html=1;outlineConnect=0;" parent="1" vertex="1">
          <mxGeometry x="70" y="420" width="30" height="60" as="geometry" />
        </mxCell>
        <mxCell id="qpy29FYlr7XTLHQaatxs-13" style="edgeStyle=orthogonalEdgeStyle;rounded=0;orthogonalLoop=1;jettySize=auto;html=1;entryX=1;entryY=0.5;entryDx=0;entryDy=0;" parent="1" source="jnAjXJH3F_CCq7e61zvw-3" target="qpy29FYlr7XTLHQaatxs-12" edge="1">
          <mxGeometry relative="1" as="geometry">
            <Array as="points">
              <mxPoint x="1410" y="430" />
              <mxPoint x="1410" y="620" />
            </Array>
          </mxGeometry>
        </mxCell>
        <mxCell id="qpy29FYlr7XTLHQaatxs-22" style="edgeStyle=orthogonalEdgeStyle;rounded=0;orthogonalLoop=1;jettySize=auto;html=1;entryX=1;entryY=0.5;entryDx=0;entryDy=0;" parent="1" source="jnAjXJH3F_CCq7e61zvw-3" target="qpy29FYlr7XTLHQaatxs-20" edge="1">
          <mxGeometry relative="1" as="geometry" />
        </mxCell>
        <mxCell id="qpy29FYlr7XTLHQaatxs-23" style="edgeStyle=orthogonalEdgeStyle;rounded=0;orthogonalLoop=1;jettySize=auto;html=1;entryX=1;entryY=0.5;entryDx=0;entryDy=0;" parent="1" source="jnAjXJH3F_CCq7e61zvw-3" target="qpy29FYlr7XTLHQaatxs-21" edge="1">
          <mxGeometry relative="1" as="geometry" />
        </mxCell>
        <mxCell id="Qdt4qbrYpTiPzd6UM6HN-4" style="edgeStyle=orthogonalEdgeStyle;rounded=0;orthogonalLoop=1;jettySize=auto;html=1;entryX=1;entryY=0.5;entryDx=0;entryDy=0;" edge="1" parent="1" source="jnAjXJH3F_CCq7e61zvw-3" target="Qdt4qbrYpTiPzd6UM6HN-3">
          <mxGeometry relative="1" as="geometry">
            <Array as="points">
              <mxPoint x="1410" y="430" />
              <mxPoint x="1410" y="820" />
            </Array>
          </mxGeometry>
        </mxCell>
        <mxCell id="jnAjXJH3F_CCq7e61zvw-3" value="Quản lý" style="shape=umlActor;verticalLabelPosition=bottom;verticalAlign=top;html=1;outlineConnect=0;" parent="1" vertex="1">
          <mxGeometry x="1510" y="400" width="30" height="60" as="geometry" />
        </mxCell>
        <mxCell id="jnAjXJH3F_CCq7e61zvw-9" value="Đăng nhập" style="ellipse;whiteSpace=wrap;html=1;" parent="1" vertex="1">
          <mxGeometry x="610" y="400" width="160" height="160" as="geometry" />
        </mxCell>
        <mxCell id="jnAjXJH3F_CCq7e61zvw-16" value="Thanh toán" style="ellipse;whiteSpace=wrap;html=1;" parent="1" vertex="1">
          <mxGeometry x="170" y="250" width="120" height="80" as="geometry" />
        </mxCell>
        <mxCell id="jnAjXJH3F_CCq7e61zvw-20" value="Quản lý hóa đơn" style="ellipse;whiteSpace=wrap;html=1;" parent="1" vertex="1">
          <mxGeometry x="1201" y="680" width="120" height="80" as="geometry" />
        </mxCell>
        <mxCell id="jnAjXJH3F_CCq7e61zvw-21" style="edgeStyle=orthogonalEdgeStyle;rounded=0;orthogonalLoop=1;jettySize=auto;html=1;entryX=1;entryY=0.5;entryDx=0;entryDy=0;" parent="1" target="jnAjXJH3F_CCq7e61zvw-20" edge="1">
          <mxGeometry relative="1" as="geometry">
            <mxPoint x="1500" y="430" as="sourcePoint" />
            <mxPoint x="1340" y="720" as="targetPoint" />
            <Array as="points">
              <mxPoint x="1410" y="430" />
              <mxPoint x="1410" y="720" />
            </Array>
          </mxGeometry>
        </mxCell>
        <mxCell id="jnAjXJH3F_CCq7e61zvw-22" value="Thêm giỏ hàng" style="ellipse;whiteSpace=wrap;html=1;" parent="1" vertex="1">
          <mxGeometry x="180" y="460" width="120" height="80" as="geometry" />
        </mxCell>
        <mxCell id="qpy29FYlr7XTLHQaatxs-1" value="&lt;span style=&quot;font-size: 12px; text-wrap-mode: wrap; background-color: rgb(236, 236, 236);&quot;&gt;include&lt;/span&gt;" style="endArrow=open;endSize=12;dashed=1;html=1;rounded=0;exitX=1;exitY=0.5;exitDx=0;exitDy=0;" parent="1" source="jnAjXJH3F_CCq7e61zvw-16" target="jnAjXJH3F_CCq7e61zvw-9" edge="1">
          <mxGeometry x="0.0077" width="160" relative="1" as="geometry">
            <mxPoint x="302" y="540" as="sourcePoint" />
            <mxPoint x="330" y="620" as="targetPoint" />
            <mxPoint as="offset" />
          </mxGeometry>
        </mxCell>
        <mxCell id="qpy29FYlr7XTLHQaatxs-2" value="&lt;span style=&quot;font-size: 12px; text-wrap-mode: wrap; background-color: rgb(236, 236, 236);&quot;&gt;include&lt;/span&gt;" style="endArrow=open;endSize=12;dashed=1;html=1;rounded=0;exitX=1;exitY=0.5;exitDx=0;exitDy=0;" parent="1" source="jnAjXJH3F_CCq7e61zvw-22" target="jnAjXJH3F_CCq7e61zvw-9" edge="1">
          <mxGeometry x="0.0077" width="160" relative="1" as="geometry">
            <mxPoint x="600" y="610" as="sourcePoint" />
            <mxPoint x="600" y="490" as="targetPoint" />
            <mxPoint as="offset" />
          </mxGeometry>
        </mxCell>
        <mxCell id="qpy29FYlr7XTLHQaatxs-5" value="&lt;span style=&quot;font-size: 12px; text-wrap-mode: wrap; background-color: rgb(236, 236, 236);&quot;&gt;include&lt;/span&gt;" style="endArrow=open;endSize=12;dashed=1;html=1;rounded=0;exitX=0;exitY=0.5;exitDx=0;exitDy=0;" parent="1" source="jnAjXJH3F_CCq7e61zvw-20" target="jnAjXJH3F_CCq7e61zvw-9" edge="1">
          <mxGeometry x="0.0077" width="160" relative="1" as="geometry">
            <mxPoint x="529" y="413" as="sourcePoint" />
            <mxPoint x="770" y="460" as="targetPoint" />
            <mxPoint as="offset" />
          </mxGeometry>
        </mxCell>
        <mxCell id="qpy29FYlr7XTLHQaatxs-6" value="Quên mật khẩu" style="ellipse;whiteSpace=wrap;html=1;" parent="1" vertex="1">
          <mxGeometry x="710" y="730" width="120" height="80" as="geometry" />
        </mxCell>
        <mxCell id="qpy29FYlr7XTLHQaatxs-7" value="Đổi mật khẩu" style="ellipse;whiteSpace=wrap;html=1;" parent="1" vertex="1">
          <mxGeometry x="950" y="710" width="120" height="80" as="geometry" />
        </mxCell>
        <mxCell id="qpy29FYlr7XTLHQaatxs-8" value="Đăng ký tài khoản" style="ellipse;whiteSpace=wrap;html=1;" parent="1" vertex="1">
          <mxGeometry x="830" y="720" width="120" height="80" as="geometry" />
        </mxCell>
        <mxCell id="qpy29FYlr7XTLHQaatxs-9" value="&lt;span style=&quot;font-size: 12px; text-wrap-mode: wrap; background-color: rgb(236, 236, 236);&quot;&gt;include&lt;/span&gt;" style="endArrow=open;endSize=12;dashed=1;html=1;rounded=0;entryX=0.767;entryY=0.938;entryDx=0;entryDy=0;entryPerimeter=0;" parent="1" source="qpy29FYlr7XTLHQaatxs-8" target="jnAjXJH3F_CCq7e61zvw-9" edge="1">
          <mxGeometry x="0.0077" width="160" relative="1" as="geometry">
            <mxPoint x="799" y="553" as="sourcePoint" />
            <mxPoint x="610" y="400" as="targetPoint" />
            <mxPoint as="offset" />
          </mxGeometry>
        </mxCell>
        <mxCell id="qpy29FYlr7XTLHQaatxs-10" value="&lt;span style=&quot;font-size: 12px; text-wrap-mode: wrap; background-color: rgb(236, 236, 236);&quot;&gt;include&lt;/span&gt;" style="endArrow=open;endSize=12;dashed=1;html=1;rounded=0;exitX=0.225;exitY=0.125;exitDx=0;exitDy=0;exitPerimeter=0;entryX=1;entryY=1;entryDx=0;entryDy=0;" parent="1" source="qpy29FYlr7XTLHQaatxs-7" target="jnAjXJH3F_CCq7e61zvw-9" edge="1">
          <mxGeometry x="0.0077" width="160" relative="1" as="geometry">
            <mxPoint x="769" y="553" as="sourcePoint" />
            <mxPoint x="660" y="400" as="targetPoint" />
            <mxPoint as="offset" />
          </mxGeometry>
        </mxCell>
        <mxCell id="qpy29FYlr7XTLHQaatxs-11" value="&lt;span style=&quot;font-size: 12px; text-wrap-mode: wrap; background-color: rgb(236, 236, 236);&quot;&gt;include&lt;/span&gt;" style="endArrow=open;endSize=12;dashed=1;html=1;rounded=0;" parent="1" source="qpy29FYlr7XTLHQaatxs-6" target="jnAjXJH3F_CCq7e61zvw-9" edge="1">
          <mxGeometry x="0.0077" width="160" relative="1" as="geometry">
            <mxPoint x="779" y="553" as="sourcePoint" />
            <mxPoint x="670" y="400" as="targetPoint" />
            <mxPoint as="offset" />
          </mxGeometry>
        </mxCell>
        <mxCell id="qpy29FYlr7XTLHQaatxs-12" value="Quản lý tất cả tài khoản User" style="ellipse;whiteSpace=wrap;html=1;" parent="1" vertex="1">
          <mxGeometry x="1201" y="580" width="120" height="80" as="geometry" />
        </mxCell>
        <mxCell id="qpy29FYlr7XTLHQaatxs-14" value="&lt;span style=&quot;font-size: 12px; text-wrap-mode: wrap; background-color: rgb(236, 236, 236);&quot;&gt;include&lt;/span&gt;" style="endArrow=open;endSize=12;dashed=1;html=1;rounded=0;exitX=0;exitY=0.5;exitDx=0;exitDy=0;entryX=1;entryY=0.619;entryDx=0;entryDy=0;entryPerimeter=0;" parent="1" source="qpy29FYlr7XTLHQaatxs-12" target="jnAjXJH3F_CCq7e61zvw-9" edge="1">
          <mxGeometry x="0.0077" width="160" relative="1" as="geometry">
            <mxPoint x="500" y="40" as="sourcePoint" />
            <mxPoint x="780" y="450" as="targetPoint" />
            <mxPoint as="offset" />
          </mxGeometry>
        </mxCell>
        <mxCell id="qpy29FYlr7XTLHQaatxs-15" value="Quản lý thông tin cá nhân" style="ellipse;whiteSpace=wrap;html=1;" parent="1" vertex="1">
          <mxGeometry x="590" y="740" width="120" height="80" as="geometry" />
        </mxCell>
        <mxCell id="qpy29FYlr7XTLHQaatxs-16" value="&lt;span style=&quot;font-size: 12px; text-wrap-mode: wrap; background-color: rgb(236, 236, 236);&quot;&gt;include&lt;/span&gt;" style="endArrow=open;endSize=12;dashed=1;html=1;rounded=0;" parent="1" source="qpy29FYlr7XTLHQaatxs-15" target="jnAjXJH3F_CCq7e61zvw-9" edge="1">
          <mxGeometry x="0.0077" width="160" relative="1" as="geometry">
            <mxPoint x="120" y="530" as="sourcePoint" />
            <mxPoint x="100" y="797" as="targetPoint" />
            <mxPoint as="offset" />
          </mxGeometry>
        </mxCell>
        <mxCell id="qpy29FYlr7XTLHQaatxs-19" value="&lt;span style=&quot;font-size: 12px; text-wrap-mode: wrap; background-color: rgb(236, 236, 236);&quot;&gt;include&lt;/span&gt;" style="endArrow=open;endSize=12;dashed=1;html=1;rounded=0;exitX=0;exitY=0.5;exitDx=0;exitDy=0;entryX=1;entryY=0.417;entryDx=0;entryDy=0;entryPerimeter=0;" parent="1" source="qpy29FYlr7XTLHQaatxs-17" target="jnAjXJH3F_CCq7e61zvw-9" edge="1">
          <mxGeometry x="-0.0053" y="-3" width="160" relative="1" as="geometry">
            <mxPoint x="970" y="230" as="sourcePoint" />
            <mxPoint x="950" y="497" as="targetPoint" />
            <mxPoint as="offset" />
          </mxGeometry>
        </mxCell>
        <mxCell id="qpy29FYlr7XTLHQaatxs-20" value="Quản lý các Sản phẩm" style="ellipse;whiteSpace=wrap;html=1;" parent="1" vertex="1">
          <mxGeometry x="1190" y="210" width="120" height="80" as="geometry" />
        </mxCell>
        <mxCell id="qpy29FYlr7XTLHQaatxs-21" value="Quản lý loại sản phẩm" style="ellipse;whiteSpace=wrap;html=1;" parent="1" vertex="1">
          <mxGeometry x="1190" y="110" width="120" height="80" as="geometry" />
        </mxCell>
        <mxCell id="qpy29FYlr7XTLHQaatxs-24" value="&lt;span style=&quot;font-size: 12px; text-wrap-mode: wrap; background-color: rgb(236, 236, 236);&quot;&gt;include&lt;/span&gt;" style="endArrow=open;endSize=12;dashed=1;html=1;rounded=0;entryX=0.933;entryY=0.242;entryDx=0;entryDy=0;entryPerimeter=0;exitX=0;exitY=0.5;exitDx=0;exitDy=0;" parent="1" source="qpy29FYlr7XTLHQaatxs-20" target="jnAjXJH3F_CCq7e61zvw-9" edge="1">
          <mxGeometry x="0.0077" width="160" relative="1" as="geometry">
            <mxPoint x="750" y="370" as="sourcePoint" />
            <mxPoint x="730" y="637" as="targetPoint" />
            <mxPoint as="offset" />
          </mxGeometry>
        </mxCell>
        <mxCell id="qpy29FYlr7XTLHQaatxs-25" value="&lt;span style=&quot;font-size: 12px; text-wrap-mode: wrap; background-color: rgb(236, 236, 236);&quot;&gt;include&lt;/span&gt;" style="endArrow=open;endSize=12;dashed=1;html=1;rounded=0;exitX=0;exitY=0.5;exitDx=0;exitDy=0;entryX=1;entryY=0;entryDx=0;entryDy=0;" parent="1" source="qpy29FYlr7XTLHQaatxs-21" target="jnAjXJH3F_CCq7e61zvw-9" edge="1">
          <mxGeometry x="0.0077" width="160" relative="1" as="geometry">
            <mxPoint x="680" y="390" as="sourcePoint" />
            <mxPoint x="720" y="340" as="targetPoint" />
            <mxPoint as="offset" />
          </mxGeometry>
        </mxCell>
        <mxCell id="qpy29FYlr7XTLHQaatxs-26" value="Quản lý kho" style="ellipse;whiteSpace=wrap;html=1;" parent="1" vertex="1">
          <mxGeometry x="1190" y="320" width="120" height="80" as="geometry" />
        </mxCell>
        <mxCell id="qpy29FYlr7XTLHQaatxs-28" value="&lt;span style=&quot;font-size: 12px; text-wrap-mode: wrap; background-color: rgb(236, 236, 236);&quot;&gt;include&lt;/span&gt;" style="endArrow=open;endSize=12;dashed=1;html=1;rounded=0;exitX=0;exitY=0.5;exitDx=0;exitDy=0;entryX=0.979;entryY=0.325;entryDx=0;entryDy=0;entryPerimeter=0;" parent="1" source="qpy29FYlr7XTLHQaatxs-26" target="jnAjXJH3F_CCq7e61zvw-9" edge="1">
          <mxGeometry x="0.0077" width="160" relative="1" as="geometry">
            <mxPoint x="1180" y="360" as="sourcePoint" />
            <mxPoint x="1270" y="467" as="targetPoint" />
            <mxPoint as="offset" />
          </mxGeometry>
        </mxCell>
        <mxCell id="qpy29FYlr7XTLHQaatxs-29" style="edgeStyle=orthogonalEdgeStyle;rounded=0;orthogonalLoop=1;jettySize=auto;html=1;entryX=1;entryY=0.5;entryDx=0;entryDy=0;" parent="1" source="jnAjXJH3F_CCq7e61zvw-3" target="qpy29FYlr7XTLHQaatxs-26" edge="1">
          <mxGeometry relative="1" as="geometry">
            <mxPoint x="1320" y="360" as="targetPoint" />
          </mxGeometry>
        </mxCell>
        <mxCell id="qpy29FYlr7XTLHQaatxs-30" value="Xem lịch sử mua hàng" style="ellipse;whiteSpace=wrap;html=1;" parent="1" vertex="1">
          <mxGeometry x="170" y="370" width="120" height="80" as="geometry" />
        </mxCell>
        <mxCell id="qpy29FYlr7XTLHQaatxs-32" value="&lt;span style=&quot;font-size: 12px; text-wrap-mode: wrap; background-color: rgb(236, 236, 236);&quot;&gt;include&lt;/span&gt;" style="endArrow=open;endSize=12;dashed=1;html=1;rounded=0;entryX=-0.008;entryY=0.45;entryDx=0;entryDy=0;entryPerimeter=0;exitX=1;exitY=0.5;exitDx=0;exitDy=0;exitPerimeter=0;" parent="1" source="qpy29FYlr7XTLHQaatxs-30" target="jnAjXJH3F_CCq7e61zvw-9" edge="1">
          <mxGeometry x="0.0077" width="160" relative="1" as="geometry">
            <mxPoint x="300" y="410" as="sourcePoint" />
            <mxPoint x="463" y="589" as="targetPoint" />
            <mxPoint as="offset" />
          </mxGeometry>
        </mxCell>
        <mxCell id="qpy29FYlr7XTLHQaatxs-33" value="Đánh giá sản phẩm" style="ellipse;whiteSpace=wrap;html=1;" parent="1" vertex="1">
          <mxGeometry x="170" y="160" width="120" height="80" as="geometry" />
        </mxCell>
        <mxCell id="qpy29FYlr7XTLHQaatxs-35" value="&lt;span style=&quot;font-size: 12px; text-wrap-mode: wrap; background-color: rgb(236, 236, 236);&quot;&gt;include&lt;/span&gt;" style="endArrow=open;endSize=12;dashed=1;html=1;rounded=0;exitX=1;exitY=0.5;exitDx=0;exitDy=0;entryX=0;entryY=0;entryDx=0;entryDy=0;" parent="1" source="qpy29FYlr7XTLHQaatxs-33" target="jnAjXJH3F_CCq7e61zvw-9" edge="1">
          <mxGeometry x="0.0077" width="160" relative="1" as="geometry">
            <mxPoint x="60" y="540" as="sourcePoint" />
            <mxPoint x="263" y="569" as="targetPoint" />
            <mxPoint as="offset" />
          </mxGeometry>
        </mxCell>
        <mxCell id="qpy29FYlr7XTLHQaatxs-37" value="Theo dõi đơn hàng" style="ellipse;whiteSpace=wrap;html=1;" parent="1" vertex="1">
          <mxGeometry x="170" y="580" width="120" height="80" as="geometry" />
        </mxCell>
        <mxCell id="qpy29FYlr7XTLHQaatxs-38" value="&lt;span style=&quot;font-size: 12px; text-wrap-mode: wrap; background-color: rgb(236, 236, 236);&quot;&gt;include&lt;/span&gt;" style="endArrow=open;endSize=12;dashed=1;html=1;rounded=0;exitX=1;exitY=0.5;exitDx=0;exitDy=0;" parent="1" source="qpy29FYlr7XTLHQaatxs-37" target="jnAjXJH3F_CCq7e61zvw-9" edge="1">
          <mxGeometry x="0.0077" width="160" relative="1" as="geometry">
            <mxPoint x="840" y="1210" as="sourcePoint" />
            <mxPoint x="700" y="990" as="targetPoint" />
            <mxPoint as="offset" />
          </mxGeometry>
        </mxCell>
        <mxCell id="Qdt4qbrYpTiPzd6UM6HN-2" value="" style="edgeStyle=orthogonalEdgeStyle;rounded=0;orthogonalLoop=1;jettySize=auto;html=1;" edge="1" parent="1" source="jnAjXJH3F_CCq7e61zvw-3" target="qpy29FYlr7XTLHQaatxs-17">
          <mxGeometry relative="1" as="geometry">
            <mxPoint x="1510" y="430" as="sourcePoint" />
            <mxPoint x="1300" y="940" as="targetPoint" />
            <Array as="points">
              <mxPoint x="1410" y="430" />
              <mxPoint x="1410" y="490" />
            </Array>
          </mxGeometry>
        </mxCell>
        <mxCell id="qpy29FYlr7XTLHQaatxs-17" value="Xem doanh thu" style="ellipse;whiteSpace=wrap;html=1;" parent="1" vertex="1">
          <mxGeometry x="1201" y="450" width="120" height="80" as="geometry" />
        </mxCell>
        <mxCell id="Qdt4qbrYpTiPzd6UM6HN-3" value="Xem đánh giá sản phẩm" style="ellipse;whiteSpace=wrap;html=1;" vertex="1" parent="1">
          <mxGeometry x="1201" y="780" width="120" height="80" as="geometry" />
        </mxCell>
      </root>
    </mxGraphModel>
  </diagram>
</mxfile>
